<svg  viewBox="0 0 652 652">
<path className="st0" d="M210.1,312.8c0-14.3-3.8-27.4-18.4-27.4c-15.5,0-20.2,13.2-20.2,27.4v6.2h37.1c1.1,0,1.6-0.7,1.6-1.6V312.8z
	 M171.5,343.6c-0.2,15.8,2,33.7,22.9,33.7c18.7,0,32.4-12.5,35.5-30.8h3.6c-3.6,20.5-18.7,34.3-39.1,34.3c-26,0-44.2-20.1-44.2-49.5
	c0-21.6,17.3-49.5,41.5-49.5c26.2,0,39.8,29.4,39.8,38.8c0,1.3-0.7,2-2,2h-58V343.6z M253.9,290.3h-17.5v-3.6h17.5
	c10.7,0,14.7,0,18.7-4.9v22.7h0.4c5.8-10.7,16.9-22.7,33.1-22.7c23.8,0,30.4,12,30.4,25.2v67.6h17.6v3.6h-53.8v-3.6h17.5v-72.9
	c0-12.3-6-16.3-13.1-16.3c-18.7,0-28.2,18.7-32.2,26.3v62.9h16.9v3.6h-53.1v-3.6h17.5V290.3z M413.5,312.8
	c0-14.3-3.8-27.4-18.4-27.4c-15.5,0-20.2,13.2-20.2,27.4v6.2H412c1.1,0,1.6-0.7,1.6-1.6V312.8z M374.9,343.6
	c-0.2,15.8,2,33.7,22.9,33.7c18.7,0,32.4-12.5,35.5-30.8h3.6c-3.6,20.5-18.7,34.3-39.1,34.3c-26,0-44.2-20.1-44.2-49.5
	c0-21.6,17.3-49.5,41.5-49.5c26.2,0,39.8,29.4,39.8,38.8c0,1.3-0.7,2-2,2h-58V343.6z M576.7,290.3h-19.3v-3.6
	c23.1,0.4,31.5-9.4,35.3-31.2h2.7v31.2H626v3.6h-30.7v74.9c0,9.1,3.8,12,10.9,12c11.1,0,16-10.3,17.3-14.1l3.3,0.7
	c-1.6,5.4-8,16.9-24.4,16.9c-15.5,0-25.8-5.1-25.8-19.8V290.3z M526.3,290.3h-7.5v-3.6h7.5c7.1,0,14.2-0.4,18.7-4.9v92.8h17.8v3.6
	h-54.2v-3.6h17.8V290.3z M488.7,292.2c-14,40.4-25.8,81.8-36,99.6c-15.4,27.1-25,32.2-38.5,31.7c-7.2-0.3-12.6-6.4-12.4-12
	c0.2-6,5-9.8,9.9-9.7c5.8,0.2,9.5,3.7,9.3,8.5c-0.2,5.8-4.2,5.7-4.3,8.1c0,1.4,1.2,2,3.1,2.1c3.6,0.1,12-2.6,18.4-19
	c8.2-21.3,19-69.9,31.2-106.7l1.1-3.2c7-22.6,18.9-39.9,30.8-50.7c10.8-9.6,19.9-13.9,29.3-13.6c7.7,0.3,14.6,5.8,14.3,13.2
	c-0.2,5.4-3.3,10.3-10.6,10.4c-7,0.1-10.5-6.4-10.4-10.8c0.2-5.4,3.6-6.3,3.7-8.1c0.1-1.6-1.6-1.7-2.9-1.7
	c-12.8-0.4-25.6,29.9-28.7,39.5L488.7,292.2z"/>
<polygon id="Fill-13" className="st0" points="450.3,290.3 450.3,286.7 509.4,286.7 509.4,290.3 "/>
<path id="Fill-15" className="st0" d="M61.1,345.7c0,21.3,16.5,31.6,29.7,31.6c21.9,0,24.6-12.8,24.6-46.2c0-30.7-3.3-46.2-23-46.2
	c-18.5,0-31.3,18.4-31.3,34.8V345.7z M42.3,237.3H26.9v-3.7h15.4c7.1,0,14.3-0.5,18.8-5.6v76.2h0.4c4-10.5,14.7-22.9,30.8-22.9
	c26.8,0,44.4,27.8,44.4,49.8c0,26.2-18.1,49.8-46,49.8c-15.9,0-26.3-11.9-29.3-19.1h-0.4v16.4H26.9v-3.6h15.4V237.3z"/>
<path id="Fill-18" className="st0" d="M53.3,404.5c-2.1-1.2-3.1-1.5-4.5-1.5c-2.4,0-4.3,1.7-4.3,3.9c0,5.4,9.6,2.8,9.6,9.9
	c0,3.1-2.6,5.6-5.9,5.6c-1.7,0-3.4-0.6-5.2-1.8v-1.8c2.3,1.6,3.5,2.2,5.1,2.2c2.4,0,4.3-1.8,4.3-4c0-5.8-9.6-3.2-9.6-9.9
	c0-3,2.6-5.4,5.8-5.4c1.6,0,3.1,0.4,4.7,1.3V404.5z"/>
<path id="Stroke-20" className="st1" d="M53.3,404.5c-2.1-1.2-3.1-1.5-4.5-1.5c-2.4,0-4.3,1.7-4.3,3.9c0,5.4,9.6,2.8,9.6,9.9
	c0,3.1-2.6,5.6-5.9,5.6c-1.7,0-3.4-0.6-5.2-1.8v-1.8c2.3,1.6,3.5,2.2,5.1,2.2c2.4,0,4.3-1.8,4.3-4c0-5.8-9.6-3.2-9.6-9.9
	c0-3,2.6-5.4,5.8-5.4c1.6,0,3.1,0.4,4.7,1.3V404.5z"/>
<path id="Fill-22" className="st0" d="M43.2,420.5c1.7,1.2,3.4,1.7,5.1,1.7c3.2,0,5.8-2.4,5.8-5.5c0-3.7-2.7-4.7-5.2-5.7
	c-2.3-0.8-4.4-1.6-4.4-4.2c0-2.3,1.9-4,4.4-4c1.4,0,2.4,0.3,4.4,1.5v-1.5c-1.5-0.8-3-1.2-4.6-1.2c-3.1,0-5.7,2.4-5.7,5.3
	c0,3.4,2.5,4.4,5,5.3c2.4,0.9,4.6,1.8,4.6,4.6c0,2.3-1.9,4.1-4.4,4.1c-1.6,0-2.8-0.5-5-2.1V420.5z M48.3,422.4
	c-1.7,0-3.5-0.6-5.2-1.8l0,0v-2.1l0.2,0.1c2.2,1.6,3.5,2.2,5,2.2c2.3,0,4.2-1.7,4.2-3.9c0-2.7-2.2-3.5-4.5-4.4c-2.5-1-5.1-2-5.1-5.5
	c0-3,2.7-5.5,5.9-5.5c1.6,0,3.1,0.4,4.7,1.3l0.1,0v2l-0.2-0.1c-2-1.2-3.1-1.5-4.5-1.5c-2.4,0-4.2,1.6-4.2,3.8c0,2.5,2.1,3.2,4.3,4.1
	c2.5,0.9,5.4,2,5.4,5.9C54.2,419.9,51.6,422.4,48.3,422.4L48.3,422.4z"/>
<path id="Stroke-24" className="st1" d="M43.2,420.5c1.7,1.2,3.4,1.7,5.1,1.7c3.2,0,5.8-2.4,5.8-5.5c0-3.7-2.7-4.7-5.2-5.7
	c-2.3-0.8-4.4-1.6-4.4-4.2c0-2.3,1.9-4,4.4-4c1.4,0,2.4,0.3,4.4,1.5v-1.5c-1.5-0.8-3-1.2-4.6-1.2c-3.1,0-5.7,2.4-5.7,5.3
	c0,3.4,2.5,4.4,5,5.3c2.4,0.9,4.6,1.8,4.6,4.6c0,2.3-1.9,4.1-4.4,4.1c-1.6,0-2.8-0.5-5-2.1V420.5z M48.3,422.4
	c-1.7,0-3.5-0.6-5.2-1.8l0,0v-2.1l0.2,0.1c2.2,1.6,3.5,2.2,5,2.2c2.3,0,4.2-1.7,4.2-3.9c0-2.7-2.2-3.5-4.5-4.4c-2.5-1-5.1-2-5.1-5.5
	c0-3,2.7-5.5,5.9-5.5c1.6,0,3.1,0.4,4.7,1.3l0.1,0v2l-0.2-0.1c-2-1.2-3.1-1.5-4.5-1.5c-2.4,0-4.2,1.6-4.2,3.8c0,2.5,2.1,3.2,4.3,4.1
	c2.5,0.9,5.4,2,5.4,5.9C54.2,419.9,51.6,422.4,48.3,422.4z"/>
<path id="Fill-26" className="st0" d="M75,404.2l-4.3,9.6h8.7L75,404.2z M84.8,422h-1.6l-3.2-7h-9.9l-3.2,7h-1.6l9.3-20.4h0.9L84.8,422z
	"/>
<path id="Stroke-28" className="st1" d="M75,404.2l-4.3,9.6h8.7L75,404.2z M84.8,422h-1.6l-3.2-7h-9.9l-3.2,7h-1.6l9.3-20.4h0.9
	L84.8,422z"/>
<path id="Fill-30" className="st0" d="M70.8,413.6h8.4l-4.2-9.2L70.8,413.6z M79.5,413.8h-9l4.5-9.9L79.5,413.8z M83.2,421.9h1.4
	l-9.2-20.2h-0.7l-9.2,20.2h1.4l3.2-7h10l0,0.1L83.2,421.9z M84.9,422.1h-1.9l0-0.1l-3.2-7h-9.7l-3.2,7h-1.9l0.1-0.1l9.4-20.5h1
	l0,0.1L84.9,422.1z"/>
<path id="Stroke-32" className="st1" d="M70.8,413.6h8.4l-4.2-9.2L70.8,413.6z M79.5,413.8h-9l4.5-9.9L79.5,413.8z M83.2,421.9h1.4
	l-9.2-20.2h-0.7l-9.2,20.2h1.4l3.2-7h10l0,0.1L83.2,421.9z M84.9,422.1h-1.9l0-0.1l-3.2-7h-9.7l-3.2,7h-1.9l0.1-0.1l9.4-20.5h1
	l0,0.1L84.9,422.1z"/>
<polygon id="Fill-34" className="st0" points="115.2,422 113.9,422 98.5,404.3 98.5,422 97,422 97,401.8 98.3,401.8 113.6,419.5 
	113.6,401.8 115.2,401.8 "/>
<polygon id="Stroke-36" className="st1" points="115.2,422 113.9,422 98.5,404.3 98.5,422 97,422 97,401.8 98.3,401.8 113.6,419.5 
	113.6,401.8 115.2,401.8 "/>
<path id="Fill-38" className="st0" d="M113.9,421.9h1.2v-20.1h-1.4v17.9l-15.5-17.9h-1.2v20.1h1.4V404L113.9,421.9z M115.3,422.1h-1.5
	l0,0l-15.2-17.5v17.6h-1.8v-20.5h1.5l0,0l15.1,17.5v-17.6h1.8V422.1z"/>
<path id="Stroke-40" className="st1" d="M113.9,421.9h1.2v-20.1h-1.4v17.9l-15.5-17.9h-1.2v20.1h1.4V404L113.9,421.9z M115.3,422.1h-1.5
	l0,0l-15.2-17.5v17.6h-1.8v-20.5h1.5l0,0l15.1,17.5v-17.6h1.8V422.1z"/>
<polygon id="Fill-42" className="st0" points="158,403.1 149.2,403.1 149.2,410.8 157.1,410.8 157.1,412.1 149.2,412.1 149.2,422 
	147.6,422 147.6,401.8 158,401.8 "/>
<polygon id="Stroke-44" className="st1" points="158,403.1 149.2,403.1 149.2,410.8 157.1,410.8 157.1,412.1 149.2,412.1 149.2,422 
	147.6,422 147.6,401.8 158,401.8 "/>
<path id="Fill-46" className="st0" d="M147.7,421.9h1.4v-10h8v-1.1h-8V403h8.8v-1.1h-10.2V421.9z M149.3,422.1h-1.8v-20.5h10.6v1.5h-8.8
	v7.5h8v1.5h-8V422.1z"/>
<path id="Stroke-48" className="st1" d="M147.7,421.9h1.4v-10h8v-1.1h-8V403h8.8v-1.1h-10.2V421.9z M149.3,422.1h-1.8v-20.5h10.6v1.5
	h-8.8v7.5h8v1.5h-8V422.1z"/>
<path id="Fill-50" className="st0" d="M172,411h3.3c3.6,0,5.3-1.5,5.3-4c0-2.3-1.6-4-5.3-4H172V411z M175.6,401.8c4.9,0,6.7,2.5,6.7,5.2
	c0,2.4-1.3,4-3.9,4.9c0.9,0.5,1.7,1.7,2.7,3.1l4.6,7h-1.8l-3.5-5.6c-2.4-3.8-3.2-4.2-5.6-4.2H172v9.7h-1.6v-20.3H175.6z"/>
<path id="Stroke-52" className="st1" d="M172,411h3.3c3.6,0,5.3-1.5,5.3-4c0-2.3-1.6-4-5.3-4H172V411z M175.6,401.8
	c4.9,0,6.7,2.5,6.7,5.2c0,2.4-1.3,4-3.9,4.9c0.9,0.5,1.7,1.7,2.7,3.1l4.6,7h-1.8l-3.5-5.6c-2.4-3.8-3.2-4.2-5.6-4.2H172v9.7h-1.6
	v-20.3H175.6z"/>
<path id="Fill-54" className="st0" d="M172.1,410.9h3.2c3.3,0,5.2-1.4,5.2-3.9c0-2.4-1.9-3.9-5.2-3.9h-3.2V410.9z M175.3,411.1h-3.5V403
	h3.4c3.5,0,5.4,1.5,5.4,4.1C180.7,408.6,180,411.1,175.3,411.1L175.3,411.1z M183.9,421.9h1.6l-4.5-6.9c-1-1.5-1.8-2.6-2.7-3.1
	l-0.2-0.1l0.2-0.1c2.5-0.9,3.8-2.5,3.8-4.8c0-1.5-0.6-5.1-6.6-5.1h-5.1v20.1h1.4v-9.7h2.8c2.5,0,3.3,0.4,5.7,4.2L183.9,421.9z
	 M185.9,422.2h-2.1l0,0l-3.5-5.6c-2.4-3.8-3.1-4.1-5.5-4.1h-2.6v9.7h-1.8v-20.5h5.3c6.1,0,6.8,3.7,6.8,5.3c0,2.3-1.3,4-3.7,5
	c0.9,0.5,1.6,1.6,2.5,3L185.9,422.2z"/>
<path id="Stroke-56" className="st1" d="M172.1,410.9h3.2c3.3,0,5.2-1.4,5.2-3.9c0-2.4-1.9-3.9-5.2-3.9h-3.2V410.9z M175.3,411.1h-3.5
	V403h3.4c3.5,0,5.4,1.5,5.4,4.1C180.7,408.6,180,411.1,175.3,411.1z M183.9,421.9h1.6l-4.5-6.9c-1-1.5-1.8-2.6-2.7-3.1l-0.2-0.1
	l0.2-0.1c2.5-0.9,3.8-2.5,3.8-4.8c0-1.5-0.6-5.1-6.6-5.1h-5.1v20.1h1.4v-9.7h2.8c2.5,0,3.3,0.4,5.7,4.2L183.9,421.9z M185.9,422.2
	h-2.1l0,0l-3.5-5.6c-2.4-3.8-3.1-4.1-5.5-4.1h-2.6v9.7h-1.8v-20.5h5.3c6.1,0,6.8,3.7,6.8,5.3c0,2.3-1.3,4-3.7,5
	c0.9,0.5,1.6,1.6,2.5,3L185.9,422.2z"/>
<path id="Fill-58" className="st0" d="M204.7,404.2l-4.3,9.6h8.7L204.7,404.2z M214.4,422h-1.6l-3.2-7h-9.9l-3.2,7h-1.6l9.3-20.4h0.9
	L214.4,422z"/>
<path id="Stroke-60" className="st1" d="M204.7,404.2l-4.3,9.6h8.7L204.7,404.2z M214.4,422h-1.6l-3.2-7h-9.9l-3.2,7h-1.6l9.3-20.4h0.9
	L214.4,422z"/>
<path id="Fill-62" className="st0" d="M200.5,413.6h8.4l-4.2-9.2L200.5,413.6z M209.2,413.8h-9l4.5-9.9L209.2,413.8z M212.9,421.9h1.4
	l-9.2-20.2h-0.7l-9.2,20.2h1.4l3.2-7h10l0,0.1L212.9,421.9z M214.6,422.1h-1.9l0-0.1l-3.2-7h-9.7l-3.2,7h-1.9l0.1-0.1l9.4-20.5h1
	l0,0.1L214.6,422.1z"/>
<path id="Stroke-64" className="st1" d="M200.5,413.6h8.4l-4.2-9.2L200.5,413.6z M209.2,413.8h-9l4.5-9.9L209.2,413.8z M212.9,421.9h1.4
	l-9.2-20.2h-0.7l-9.2,20.2h1.4l3.2-7h10l0,0.1L212.9,421.9z M214.6,422.1h-1.9l0-0.1l-3.2-7h-9.7l-3.2,7h-1.9l0.1-0.1l9.4-20.5h1
	l0,0.1L214.6,422.1z"/>
<polygon id="Fill-66" className="st0" points="244.9,422 243.6,422 228.2,404.3 228.2,422 226.7,422 226.7,401.8 228,401.8 243.3,419.5 
	243.3,401.8 244.9,401.8 "/>
<polygon id="Stroke-68" className="st1" points="244.9,422 243.6,422 228.2,404.3 228.2,422 226.7,422 226.7,401.8 228,401.8 
	243.3,419.5 243.3,401.8 244.9,401.8 "/>
<path id="Fill-70" className="st0" d="M243.6,421.9h1.2v-20.1h-1.4v17.9l-15.5-17.9h-1.2v20.1h1.4V404L243.6,421.9z M245,422.1h-1.5l0,0
	l-15.2-17.5v17.6h-1.8v-20.5h1.5l0,0l15.1,17.5v-17.6h1.8V422.1z"/>
<path id="Stroke-72" className="st1" d="M243.6,421.9h1.2v-20.1h-1.4v17.9l-15.5-17.9h-1.2v20.1h1.4V404L243.6,421.9z M245,422.1h-1.5
	l0,0l-15.2-17.5v17.6h-1.8v-20.5h1.5l0,0l15.1,17.5v-17.6h1.8V422.1z"/>
<path id="Fill-74" className="st0" d="M276.1,404.9c-2.5-1.3-4.8-2-7.2-2c-5,0-8.8,3.8-8.8,9c0,5.2,3.8,8.9,9,8.9c2.3,0,4.4-0.6,7.2-2.1
	v1.6c-2.3,1.3-4.8,1.9-7.2,1.9c-6.2,0-10.8-4.4-10.8-10.4c0-6.2,5.1-10.4,10.6-10.4c2.3,0,4.7,0.6,7.1,1.7V404.9z"/>
<path id="Stroke-76" className="st1" d="M276.1,404.9c-2.5-1.3-4.8-2-7.2-2c-5,0-8.8,3.8-8.8,9c0,5.2,3.8,8.9,9,8.9
	c2.3,0,4.4-0.6,7.2-2.1v1.6c-2.3,1.3-4.8,1.9-7.2,1.9c-6.2,0-10.8-4.4-10.8-10.4c0-6.2,5.1-10.4,10.6-10.4c2.3,0,4.7,0.6,7.1,1.7
	V404.9z"/>
<path id="Fill-78" className="st0" d="M269,401.6c-6.6,0-10.5,5.3-10.5,10.3c0,5.9,4.6,10.3,10.7,10.3c2.3,0,4.8-0.6,7.1-1.9v-1.4
	c-2.7,1.4-4.8,2-7.1,2c-5.4,0-9.1-3.7-9.1-9c0-5.2,3.8-9.1,8.9-9.1c2.4,0,4.6,0.6,7.1,1.9v-1.5C273.6,402.2,271.3,401.6,269,401.6
	 M269.2,422.4c-6.2,0-10.9-4.5-10.9-10.5c0-3,1.2-5.7,3.3-7.6c2-1.9,4.7-2.9,7.5-2.9c2.3,0,4.7,0.6,7.2,1.7l0.1,0v2l-0.2-0.1
	c-2.5-1.3-4.8-2-7.2-2c-5,0-8.7,3.8-8.7,8.9c0,5.2,3.7,8.8,8.9,8.8c2.3,0,4.4-0.6,7.2-2.1l0.2-0.1v1.9l-0.1,0
	C274,421.8,271.5,422.4,269.2,422.4"/>
<path id="Stroke-80" className="st1" d="M269,401.6c-6.6,0-10.5,5.3-10.5,10.3c0,5.9,4.6,10.3,10.7,10.3c2.3,0,4.8-0.6,7.1-1.9v-1.4
	c-2.7,1.4-4.8,2-7.1,2c-5.4,0-9.1-3.7-9.1-9c0-5.2,3.8-9.1,8.9-9.1c2.4,0,4.6,0.6,7.1,1.9v-1.5C273.6,402.2,271.3,401.6,269,401.6z
	 M269.2,422.4c-6.2,0-10.9-4.5-10.9-10.5c0-3,1.2-5.7,3.3-7.6c2-1.9,4.7-2.9,7.5-2.9c2.3,0,4.7,0.6,7.2,1.7l0.1,0v2l-0.2-0.1
	c-2.5-1.3-4.8-2-7.2-2c-5,0-8.7,3.8-8.7,8.9c0,5.2,3.7,8.8,8.9,8.8c2.3,0,4.4-0.6,7.2-2.1l0.2-0.1v1.9l-0.1,0
	C274,421.8,271.5,422.4,269.2,422.4z"/>
<polygon id="Fill-82" className="st0" points="289.1,422 290.7,422 290.7,401.8 289.1,401.8 "/>
<polygon id="Stroke-84" className="st1" points="289.1,422 290.7,422 290.7,401.8 289.1,401.8 "/>
<path id="Fill-85" className="st0" d="M289.2,421.9h1.4v-20.1h-1.4V421.9z M289,422.1h1.8v-20.5H289V422.1z"/>
<path id="Stroke-86" className="st1" d="M289.2,421.9h1.4v-20.1h-1.4V421.9z M289,422.1h1.8v-20.5H289V422.1z"/>
<path id="Fill-87" className="st0" d="M314.6,404.5c-2.1-1.2-3.1-1.5-4.5-1.5c-2.4,0-4.3,1.7-4.3,3.9c0,5.4,9.6,2.8,9.6,9.9
	c0,3.1-2.6,5.6-5.9,5.6c-1.7,0-3.4-0.6-5.2-1.8v-1.8c2.3,1.6,3.5,2.2,5.1,2.2c2.4,0,4.3-1.8,4.3-4c0-5.8-9.6-3.2-9.6-9.9
	c0-3,2.6-5.4,5.8-5.4c1.6,0,3.1,0.4,4.7,1.3V404.5z"/>
<path id="Stroke-88" className="st1" d="M314.6,404.5c-2.1-1.2-3.1-1.5-4.5-1.5c-2.4,0-4.3,1.7-4.3,3.9c0,5.4,9.6,2.8,9.6,9.9
	c0,3.1-2.6,5.6-5.9,5.6c-1.7,0-3.4-0.6-5.2-1.8v-1.8c2.3,1.6,3.5,2.2,5.1,2.2c2.4,0,4.3-1.8,4.3-4c0-5.8-9.6-3.2-9.6-9.9
	c0-3,2.6-5.4,5.8-5.4c1.6,0,3.1,0.4,4.7,1.3V404.5z"/>
<path id="Fill-89" className="st0" d="M304.5,420.5c1.7,1.2,3.4,1.7,5.1,1.7c3.2,0,5.8-2.4,5.8-5.5c0-3.7-2.7-4.7-5.2-5.7
	c-2.3-0.8-4.4-1.6-4.4-4.2c0-2.3,1.9-4,4.4-4c1.4,0,2.4,0.3,4.4,1.5v-1.5c-1.5-0.8-3-1.2-4.6-1.2c-3.1,0-5.7,2.4-5.7,5.3
	c0,3.4,2.5,4.4,5,5.3c2.4,0.9,4.6,1.8,4.6,4.6c0,2.3-1.9,4.1-4.4,4.1c-1.6,0-2.8-0.5-5-2.1V420.5z M309.6,422.4
	c-1.7,0-3.5-0.6-5.2-1.8l0,0v-2.1l0.2,0.1c2.2,1.6,3.5,2.2,5,2.2c2.3,0,4.2-1.7,4.2-3.9c0-2.7-2.2-3.5-4.5-4.4c-2.5-1-5.1-2-5.1-5.5
	c0-3,2.7-5.5,5.9-5.5c1.6,0,3.1,0.4,4.7,1.3l0.1,0v2l-0.2-0.1c-2-1.2-3.1-1.5-4.5-1.5c-2.4,0-4.2,1.6-4.2,3.8c0,2.5,2.1,3.2,4.3,4.1
	c2.5,0.9,5.4,2,5.4,5.9C315.5,419.9,312.9,422.4,309.6,422.4L309.6,422.4z"/>
<path id="Stroke-90" className="st1" d="M304.5,420.5c1.7,1.2,3.4,1.7,5.1,1.7c3.2,0,5.8-2.4,5.8-5.5c0-3.7-2.7-4.7-5.2-5.7
	c-2.3-0.8-4.4-1.6-4.4-4.2c0-2.3,1.9-4,4.4-4c1.4,0,2.4,0.3,4.4,1.5v-1.5c-1.5-0.8-3-1.2-4.6-1.2c-3.1,0-5.7,2.4-5.7,5.3
	c0,3.4,2.5,4.4,5,5.3c2.4,0.9,4.6,1.8,4.6,4.6c0,2.3-1.9,4.1-4.4,4.1c-1.6,0-2.8-0.5-5-2.1V420.5z M309.6,422.4
	c-1.7,0-3.5-0.6-5.2-1.8l0,0v-2.1l0.2,0.1c2.2,1.6,3.5,2.2,5,2.2c2.3,0,4.2-1.7,4.2-3.9c0-2.7-2.2-3.5-4.5-4.4c-2.5-1-5.1-2-5.1-5.5
	c0-3,2.7-5.5,5.9-5.5c1.6,0,3.1,0.4,4.7,1.3l0.1,0v2l-0.2-0.1c-2-1.2-3.1-1.5-4.5-1.5c-2.4,0-4.2,1.6-4.2,3.8c0,2.5,2.1,3.2,4.3,4.1
	c2.5,0.9,5.4,2,5.4,5.9C315.5,419.9,312.9,422.4,309.6,422.4z"/>
<path id="Fill-91" className="st0" d="M345.6,404.9c-2.5-1.3-4.8-2-7.2-2c-5,0-8.8,3.8-8.8,9c0,5.2,3.8,8.9,9,8.9c2.3,0,4.4-0.6,7.2-2.1
	v1.6c-2.3,1.3-4.8,1.9-7.2,1.9c-6.2,0-10.8-4.4-10.8-10.4c0-6.2,5.1-10.4,10.6-10.4c2.3,0,4.7,0.6,7.1,1.7V404.9z"/>
<path id="Stroke-92" className="st1" d="M345.6,404.9c-2.5-1.3-4.8-2-7.2-2c-5,0-8.8,3.8-8.8,9c0,5.2,3.8,8.9,9,8.9
	c2.3,0,4.4-0.6,7.2-2.1v1.6c-2.3,1.3-4.8,1.9-7.2,1.9c-6.2,0-10.8-4.4-10.8-10.4c0-6.2,5.1-10.4,10.6-10.4c2.3,0,4.7,0.6,7.1,1.7
	V404.9z"/>
<path id="Fill-93" className="st0" d="M338.5,401.6c-6.6,0-10.5,5.3-10.5,10.3c0,5.9,4.6,10.3,10.7,10.3c2.3,0,4.8-0.6,7.1-1.9v-1.4
	c-2.7,1.4-4.8,2-7.1,2c-5.4,0-9.1-3.7-9.1-9c0-5.2,3.8-9.1,8.9-9.1c2.4,0,4.6,0.6,7.1,1.9v-1.5C343.1,402.2,340.7,401.6,338.5,401.6
	 M338.6,422.4c-6.2,0-10.9-4.5-10.9-10.5c0-3,1.2-5.7,3.3-7.6c2-1.9,4.7-2.9,7.5-2.9c2.3,0,4.7,0.6,7.2,1.7l0.1,0v2l-0.2-0.1
	c-2.5-1.3-4.8-2-7.2-2c-5,0-8.7,3.8-8.7,8.9c0,5.2,3.7,8.8,8.9,8.8c2.3,0,4.4-0.6,7.2-2.1l0.2-0.1v1.9l-0.1,0
	C343.5,421.8,341,422.4,338.6,422.4"/>
<path id="Stroke-94" className="st1" d="M338.5,401.6c-6.6,0-10.5,5.3-10.5,10.3c0,5.9,4.6,10.3,10.7,10.3c2.3,0,4.8-0.6,7.1-1.9v-1.4
	c-2.7,1.4-4.8,2-7.1,2c-5.4,0-9.1-3.7-9.1-9c0-5.2,3.8-9.1,8.9-9.1c2.4,0,4.6,0.6,7.1,1.9v-1.5C343.1,402.2,340.7,401.6,338.5,401.6
	z M338.6,422.4c-6.2,0-10.9-4.5-10.9-10.5c0-3,1.2-5.7,3.3-7.6c2-1.9,4.7-2.9,7.5-2.9c2.3,0,4.7,0.6,7.2,1.7l0.1,0v2l-0.2-0.1
	c-2.5-1.3-4.8-2-7.2-2c-5,0-8.7,3.8-8.7,8.9c0,5.2,3.7,8.8,8.9,8.8c2.3,0,4.4-0.6,7.2-2.1l0.2-0.1v1.9l-0.1,0
	C343.5,421.8,341,422.4,338.6,422.4z"/>
<path id="Fill-95" className="st0" d="M368.5,402.9c-5.1,0-9,3.9-9,9c0,5.1,4,9,9,9c5.1,0,9-3.9,9-9
	C377.5,406.8,373.6,402.9,368.5,402.9 M368.4,422.3c-6,0-10.7-4.6-10.7-10.4c0-5.8,4.7-10.4,10.7-10.4c6,0,10.7,4.6,10.7,10.4
	C379.2,417.7,374.4,422.3,368.4,422.3"/>
<path id="Stroke-96" className="st1" d="M368.5,402.9c-5.1,0-9,3.9-9,9c0,5.1,4,9,9,9c5.1,0,9-3.9,9-9
	C377.5,406.8,373.6,402.9,368.5,402.9z M368.4,422.3c-6,0-10.7-4.6-10.7-10.4c0-5.8,4.7-10.4,10.7-10.4c6,0,10.7,4.6,10.7,10.4
	C379.2,417.7,374.4,422.3,368.4,422.3z"/>
<path id="Fill-97" className="st0" d="M368.5,403c-5,0-8.9,3.9-8.9,8.9c0,5,3.9,8.9,8.9,8.9c5,0,8.9-3.9,8.9-8.9
	C377.4,406.9,373.5,403,368.5,403 M368.5,421c-5.1,0-9.1-4-9.1-9.1c0-5.1,4-9.1,9.1-9.1c5.1,0,9.1,4,9.1,9.1
	C377.6,417,373.6,421,368.5,421 M368.4,401.6c-5.9,0-10.6,4.5-10.6,10.3c0,5.8,4.6,10.3,10.6,10.3c6,0,10.6-4.5,10.6-10.3
	C379.1,406.1,374.4,401.6,368.4,401.6 M368.4,422.4c-6,0-10.8-4.6-10.8-10.5c0-5.9,4.7-10.5,10.8-10.5c6.1,0,10.8,4.6,10.8,10.5
	C379.3,417.8,374.5,422.4,368.4,422.4"/>
<path id="Stroke-98" className="st1" d="M368.5,403c-5,0-8.9,3.9-8.9,8.9c0,5,3.9,8.9,8.9,8.9c5,0,8.9-3.9,8.9-8.9
	C377.4,406.9,373.5,403,368.5,403z M368.5,421c-5.1,0-9.1-4-9.1-9.1c0-5.1,4-9.1,9.1-9.1c5.1,0,9.1,4,9.1,9.1
	C377.6,417,373.6,421,368.5,421z M368.4,401.6c-5.9,0-10.6,4.5-10.6,10.3c0,5.8,4.6,10.3,10.6,10.3c6,0,10.6-4.5,10.6-10.3
	C379.1,406.1,374.4,401.6,368.4,401.6z M368.4,422.4c-6,0-10.8-4.6-10.8-10.5c0-5.9,4.7-10.5,10.8-10.5c6.1,0,10.8,4.6,10.8,10.5
	C379.3,417.8,374.5,422.4,368.4,422.4z"/>
</svg>
