<?xml version="1.0" encoding="utf-8"?>
<!-- Generator: Adobe Illustrator 19.2.1, SVG Export Plug-In . SVG Version: 6.00 Build 0)  -->
<svg version="1.1" id="layer" xmlns="http://www.w3.org/2000/svg" xmlns:xlink="http://www.w3.org/1999/xlink" x="0px" y="0px"
	 viewBox="0 0 652 652" style="enableBackground:new 0 0 652 652;" xml:space="preserve">
<style type="text/css">
	.st0{fill:#545050;}
</style>
<path className="st0" d="M313.4,280.2c2,10.6,11.2,18.2,22,18.2c1.1,0,2.1-0.1,3.3-0.3c-1.1,8.7-8.6,15.4-17.5,15.4
	c-9.7,0-17.6-7.9-17.6-17.6C303.7,289.3,307.5,283.2,313.4,280.2 M306.9,258.3c3.9,0,7.7,1.3,10.8,3.7c-3,3.8-4.6,8.2-4.8,13.1
	c-7.1,2.8-12.3,9.1-13.8,16.6c-6-3-9.9-9.1-9.9-15.8C289.3,266.2,297.2,258.3,306.9,258.3 M335.4,258.3c9.7,0,17.6,7.9,17.6,17.6
	c0,9.7-7.9,17.6-17.6,17.6c-9.7,0-17.6-7.9-17.6-17.6C317.8,266.2,325.7,258.3,335.4,258.3 M335.4,253.5c-3,0-5.9,0.6-8.7,1.8
	c0.1-1,0.2-2,0.2-3c0-6.2-2.5-12-7-16.3l-0.3-0.3l-3.4,3.4l0.3,0.3c3.6,3.4,5.6,7.9,5.6,12.8c0,2.1-0.4,4.2-1.1,6.2
	c-4-3.2-8.9-5-14-5c-12.4,0-22.4,10.1-22.4,22.4c0,9.2,5.8,17.6,14.4,20.9c0.5,11.9,10.4,21.6,22.4,21.6c12,0,22-9.7,22.4-21.6
	c8.5-3.4,14.2-11.7,14.2-20.8C357.8,263.5,347.8,253.5,335.4,253.5 M36.1,398.7l-12.7-36.5l0-0.1h-3.1L36,407.3l15.9-45.2h-3.1
	L36.1,398.7z M60,405.7h2.9v-43.6H60V405.7z M113.3,399.5l-36-37.8l-0.3-0.3v44.2h3.1v-36.7l36,38.1l0.3,0.3v-45h-3.1V399.5z
	 M168.4,383.9c0,10.5-8.9,19.4-19.5,19.4c-10.6,0-19.5-8.9-19.5-19.4s8.9-19.4,19.5-19.4C159.5,364.5,168.4,373.4,168.4,383.9
	 M148.9,361.6c-6,0-11.6,2.3-15.9,6.6c-4.3,4.3-6.7,9.9-6.7,15.8c0,12.1,10.4,22.4,22.6,22.4c12.3,0,22.6-10.2,22.6-22.4
	S161.2,361.6,148.9,361.6 M196.7,380.2c-2.2,1.6-4.3,1.6-6.9,1.6h-5.3v-16.7h4.6c2.5,0,5.2,0,7.3,1.4c2.2,1.4,3.5,3.9,3.5,7
	C199.9,376.6,199,378.6,196.7,380.2 M184.5,384.7h5.9c3.2,0,6.5,0.1,9,1.4c2.7,1.3,4.4,4.2,4.4,7.6c0,3.1-1.5,5.7-4.2,7.5
	c-2.4,1.6-5.4,1.6-8.2,1.6h-6.9V384.7z M198.3,382.5c3.2-1.9,4.7-4.8,4.7-8.8c0-3.9-1.2-7-3.7-9.1c-2.7-2.4-5.9-2.6-9-2.6h-8.8v43.6
	h11.2c3.9,0,7.1-0.5,10.2-3.1c2.7-2.3,4.1-5.4,4.1-9.1C206.9,388.2,203.4,383.8,198.3,382.5 M223,362.1h-3.1v43.6h14v-2.9H223V362.1
	z M243.2,405.7h20.9v-2.9h-17.8v-19.4h17.4v-2.9h-17.4v-15.4h17.8v-2.9h-20.9V405.7z M614.9,385.1l-8.7-4.3l-0.3-0.2
	c-3.6-1.6-7.7-3.4-7.7-7.6c0-4.4,3.6-7.9,8.3-7.9c3.8,0,6.7,1.6,9,4.9l0.2,0.2l2.3-1.8l0.2-0.1l-0.1-0.2c-2.2-3.7-6.6-6.1-11.3-6.1
	c-7,0-11.9,4.6-11.9,11.1c0,3.4,1.6,6,4.8,7.9l8.2,4.1l0.1,0.1c0.2,0.1,0.4,0.2,0.7,0.3c3.6,1.7,8.2,3.7,8.2,8.1
	c0,5.4-4.9,9.8-10.9,9.8c-6.2,0-9.2-4.1-10.7-7.6l-0.1-0.2l-2.8,1.2l-0.2,0.1l0.1,0.2c2.2,5.8,7.4,9.4,13.6,9.4
	c7.8,0,14.5-5.8,14.5-12.7C620.3,390,618.6,387.2,614.9,385.1 M398.2,385.1l-8.7-4.3l-0.4-0.2c-3.6-1.6-7.7-3.4-7.7-7.6
	c0-4.4,3.6-7.9,8.3-7.9c3.8,0,6.8,1.6,9,4.9l0.2,0.2l2.3-1.8l0.2-0.1l-0.1-0.2c-2.2-3.7-6.6-6.1-11.3-6.1c-7,0-11.9,4.6-11.9,11.1
	c0,3.4,1.6,6,4.8,7.9l8.2,4.1l0.2,0.1c0.2,0.1,0.4,0.2,0.6,0.3c3.6,1.7,8.2,3.7,8.2,8.1c0,5.4-4.9,9.8-10.9,9.8
	c-6.2,0-9.2-4.1-10.7-7.6l-0.1-0.2l-2.8,1.2l-0.2,0.1l0.1,0.2c2.2,5.8,7.4,9.4,13.6,9.4c7.8,0,14.5-5.8,14.5-12.7
	C403.5,390,401.9,387.2,398.2,385.1 M470.2,405.9h20.9v-3.1h-17.6v-19h17.2v-3.1h-17.2v-15h17.6v-3.1h-20.9V405.9z M500.1,365.8h11
	v40.2h3.2v-40.2h11v-3.1h-25.3V365.8z M535.1,405.9h3.1v-43.3h-3.1V405.9z M435.5,395.8l-16.8-33l-0.1-0.2h-4V406h3.1v-38l16.9,33.1
	l0.1,0.2h1.5l17-33.3l0.1,37.6v0.4h3v-43.4h-3.9L435.5,395.8z M308.4,365.2c3.7,0,7.7,1.5,10.9,3.9l0.1,0.1l2-2.4l-0.1-0.1
	c-3.6-3-8.2-4.6-12.7-4.6c-5.8,0-11.2,2.3-15.4,6.5c-4.2,4.2-6.5,9.8-6.5,15.7c0,12,10,22.2,21.8,22.2c4.5,0,8.9-1.5,12.7-4.4
	l0.1-0.1l-2-2.4l-0.1,0.1c-3.2,2.3-7.4,3.8-10.8,3.8c-4.5,0-9.4-2.2-13.1-5.8c-3.5-3.6-5.5-8.2-5.5-13
	C289.8,374.1,298.3,365.2,308.4,365.2 M573.3,365.2c3.7,0,7.7,1.5,10.9,3.9l0.1,0.1l2-2.4l-0.1-0.1c-3.6-3-8.2-4.6-12.7-4.6
	c-5.8,0-11.2,2.3-15.4,6.5c-4.2,4.2-6.5,9.8-6.5,15.7c0,12,10,22.2,21.8,22.2c4.5,0,8.9-1.5,12.7-4.4l0.1-0.1l-2-2.4l-0.1,0.1
	c-3.2,2.3-7.3,3.8-10.8,3.8c-4.5,0-9.4-2.2-13.1-5.8c-3.5-3.6-5.5-8.2-5.5-13C554.8,374.1,563.3,365.2,573.3,365.2 M367.4,384.3
	c0,10.4-8.5,19.1-18.6,19.1c-4.9,0-9.6-2-13.1-5.7c-3.5-3.6-5.5-8.4-5.5-13.5c0-5,1.9-9.8,5.5-13.5c3.5-3.6,8.2-5.7,13.1-5.7
	c4.9,0,9.5,2,13.1,5.7C365.5,374.5,367.4,379.3,367.4,384.3 M348.8,362.1c-5.7,0-11.2,2.3-15.3,6.5c-4.2,4.2-6.4,9.8-6.4,15.7
	c0,5.9,2.3,11.4,6.5,15.7c4.2,4.2,9.6,6.5,15.3,6.5c5.7,0,11.2-2.3,15.3-6.5c4.2-4.2,6.5-9.8,6.5-15.7c0-5.9-2.3-11.4-6.5-15.7
	C360,364.4,354.5,362.1,348.8,362.1"/>
</svg>
