<?xml version="1.0" encoding="utf-8"?>
<!-- Generator: Adobe Illustrator 19.0.0, SVG Export Plug-In . SVG Version: 6.00 Build 0)  -->
<svg version="1.1" id="layer" xmlns="http://www.w3.org/2000/svg" xmlns:xlink="http://www.w3.org/1999/xlink" x="0px" y="0px"
	 viewBox="-153 -46 652 652" style="enableBackground:new -153 -46 652 652;" xml:space="preserve">
<path id="milani-logo-white" d="M26.2,215.1h33.6v17.8h-7v96.3h7V347H26.2v-17.8h7v-96.3h-7V215.1z M-26.7,215.1h-17.4l-19.1,14.3
	v-14.3h-17.4l-19.1,14.3v-14.3h-24.8v17.8h4.8v99.6h-6.8v14.7h33.6v-14.7h-7v-82.9l17.1-13.2V347h26.2v-14.7h-7v-82.6l17.1-13.2V347
	h26.6v-14.7h-7V215.1H-26.7z M150.9,329.2h-19.3v-96.3h6.8v-17.8h-34.1v17.8h7.3v96.3h-7.3V347h64.8v-39.3h-18.2L150.9,329.2z
	 M473.5,232.9v-18h-33v18h6.2v96H441v18h32.3v-18h-6.4v-96H473.5z M385.4,215.1H368l-19.1,14.3v-14.3H324v17.8h4.8v96.3h-7V347h33.6
	v-17.8h-7v-79.6l16.7-13V347h27.3v-17.8h-7.7L385.4,215.1z M270.9,333.4h8.6V347h-28.1l-0.2-51.2l-17.4,0.2v37.4h6.4V347h-32.5
	v-13.6h6.4v-97.1c0.2-12.7,13.8-22.4,28.6-22.4s28.1,9.9,28.1,23.1L270.9,333.4z M251.3,238.6L251.3,238.6c0-1.3-0.6-2.6-1.5-3.5
	c-1.7-1.7-4.1-2.7-6.6-2.6h-0.9c-2.5,0-4.8,0.9-6.6,2.6c-0.9,0.9-1.5,2.2-1.5,3.5l0,0v40.9h17.4v-40.9L251.3,238.6z"/>
</svg>
