<?xml version="1.0" encoding="utf-8"?>
<!-- Generator: Adobe Illustrator 19.0.0, SVG Export Plug-In . SVG Version: 6.00 Build 0)  -->
<svg version="1.1" id="layer" xmlns="http://www.w3.org/2000/svg" xmlns:xlink="http://www.w3.org/1999/xlink" x="0px" y="0px"
	 viewBox="-153 -46 652 652" style="enable-background:new -153 -46 652 652;" xml:space="preserve">
<path d="M453.2,268.5h5.3v1.5h-1.9v7.2h-1.6v-7.2h-1.9 M463.7,274.1l2.8-6.4l1.8,9.4h-1.6l-0.8-4.7l-2.3,4.9l-2.3-4.9l-0.8,4.7h-1.6
	l1.8-9.4L463.7,274.1z M445.1,282.5c-2.1-3.6-4.8-5.4-9.1-5.4c-4.4,0-9.4,3.1-9.4,8.1c0,4.4,4.3,6.8,7.8,8.2l4,1.6
	c8,3.2,13.9,7.6,13.9,17.2c0,10.4-7.9,17.8-18,17.8c-9.1,0-16.2-6.8-17.4-16l7-1.5c-0.1,6.2,4.9,10.8,10.9,10.8
	c6,0,10.3-5.1,10.3-11.1c0-6.1-4.8-8.7-9.7-10.8l-3.9-1.7c-6.4-2.8-12.2-6.5-12.2-14.4c0-9.2,8.1-14.7,16.6-14.7
	c6.2,0,11.4,3.1,14.5,8.6L445.1,282.5z M408.3,282.6c-4-3.6-9.6-5.6-14.9-5.6c-12.6,0-22.3,10.7-22.3,23.3
	c0,12.5,9.6,23.1,22.1,23.1c5.5,0,10.8-2.1,15-5.9v8.4c-4.4,2.6-9.8,4-14.8,4c-16.1,0-29.3-13-29.3-29.4c0-16.8,13.3-30,29.9-30
	c4.9,0,10,1.2,14.2,3.8V282.6z M346.9,271.7h7v57h-7V271.7z M324.8,328.7h-7v-50.5h-13.4v-6.5h33.8v6.5h-13.4V328.7z M267.2,271.7
	h30.2v6.5h-23.2v15.9h22.6v6.5h-22.6v21.5h23.2v6.5h-30.2V271.7z M210.2,291.1h-0.1l-6.6,37.7h-7.3l11.5-59.4l19.3,44.9l19.3-44.9
	l11.5,59.4h-7.3l-6.6-37.7h-0.2l-16.8,38.9L210.2,291.1z M183.6,282.5c-2.1-3.6-4.8-5.4-9.1-5.4c-4.5,0-9.4,3.1-9.4,8.1
	c0,4.4,4.3,6.8,7.9,8.2l4,1.6c8,3.2,14,7.6,14,17.2c0,10.4-7.9,17.8-18,17.8c-9.1,0-16.2-6.8-17.3-16l7-1.5
	c0,6.2,4.9,10.8,10.9,10.8c6.1,0,10.4-5.1,10.4-11.1c0-6.1-4.8-8.7-9.7-10.8l-3.9-1.7c-6.4-2.8-12.2-6.5-12.2-14.4
	c0-9.2,8.1-14.7,16.6-14.7c6.2,0,11.4,3.1,14.4,8.6L183.6,282.5z M143.7,300.2c0-12.6-9.3-23.1-22.4-23.1
	c-13.2,0-22.5,10.5-22.5,23.1c0,13,10.3,23,22.5,23C133.4,323.3,143.7,313.2,143.7,300.2 M150.7,300.2c0,16.9-13.2,29.7-29.5,29.7
	c-16.3,0-29.5-12.8-29.5-29.7c0-16.3,13.4-29.7,29.5-29.7C137.4,270.5,150.7,283.9,150.7,300.2 M85.7,282.6c-4-3.6-9.6-5.6-14.9-5.6
	c-12.6,0-22.2,10.7-22.2,23.3c0,12.5,9.6,23.1,22.1,23.1c5.5,0,10.8-2.1,15-5.9v8.4c-4.4,2.6-9.9,4-14.8,4c-16,0-29.3-13-29.3-29.4
	c0-16.8,13.3-30,29.9-30c4.9,0,9.9,1.2,14.2,3.8V282.6z M-67.5,182.9c0,0-2.9,1.3-3.5,2.6c-0.9,2.1,0.3,2.3-0.2,2.6
	c-0.6,0.3-18.3,7.3-21.1,9c-10.4,6.2-12.6,8.8-15.3,8.8c-2.7,0-23.3-15.4-23.9-22.1c-0.1-1.5,1.2-2.9,2.1-3.4
	c1.4-0.9,29.4-17.4,37.8-19.5c3.3-0.8,20.5,14.8,21.6,15.9c1.4,1.4,2.4,2,2.4,2.9C-67.5,181.2-67.5,181.1-67.5,182.9 M16.5,174.9
	c4.8,1.8,6.7,9.8,4.8,11.6c-5.1,7.5-9.9,38-8.6,39.6c1.3,1.6,98.2-23.9,165.2-15.2c2.4,0.3,3.7,1.9,3.9,2.3
	c2.4,3.6,11.7,27.1,10.5,29.5c-1.2,2.4-4.1,2.9-5.5,2.9c-5.3,0.1-13.6,0-24.4-3.6c-0.7-0.3-2.9-1.7-4.5-1.8
	c-28.8-2-78.5,0.2-148.4,14.8c-3.1,82.5,3.8,104.2,12.4,123.2c2.2,4.9-8.9,9-20.2,5.1c-16.6-5.7-16.4-79.5-16.8-100.6l-0.5-0.5
	c-9,17.9-36.4,80-61.1,104.3c-6,5.8-24.7,5-33.5,0.5c-8.8-4.5-12.5-16.9-14.4-26c-9.7-46.4,10.4-132.2,10.4-135.1
	c0-2.9-1.2-7.9,2.2-9.8c1.4-0.7,17.3-6.7,21.5,11.4l0,2c-2.5,12.5-27,96.9-3.4,151c2.8,1.1,29.2-28.4,65.5-114.8
	c-29.8,9.3-38.6,13.3-41.6,14.4c-2,0.8-10.3,0.1-14.8-5.8c-8.7-14.4-8.6-24.1-3.6-25.4c4.8-1.2,5.9,1.2,8.6,1.2
	c5.6-0.1,25.2-7,65.4-17.7c4.1-16.8,9.9-44.3,10.2-46.8c0.2-2.6-2.3-8,0.4-10C-1.5,173.8,10,172.6,16.5,174.9"/>
</svg>
