<svg width="196" height="51" viewBox="0 0 196 51" fill="none" xmlns="http://www.w3.org/2000/svg">
<path d="M68.94 12.94C68.94 14.688 66.64 15.7 63.742 15.332C56.934 14.458 53.116 12.802 52.15 12.388C46.63 21.174 46.262 31.248 39.5 38.976C29.748 50.062 0.584039 46.842 6.79404 27.2C8.17404 22.922 12.728 21.036 12.452 22.968C11.716 23.888 8.45004 24.946 7.71404 29.316C6.05804 38.746 14.568 43.806 21.652 43.668C28.874 43.484 33.796 40.586 37.292 36.768C42.858 30.742 48.884 14.504 50.816 11.928C45.986 10.41 41.8 9.628 36.878 9.398C23.722 8.754 18.432 22.232 25.654 24.532C31.312 26.326 34.624 20.622 34.44 19.334V19.242C34.9 18.828 35.36 19.012 35.36 19.61C34.762 24.532 29.518 27.154 25.194 25.682C15.81 22.416 19.306 5.488 36.556 7.052C42.076 7.512 48.608 10.226 51.552 11.054C51.966 10.548 53.944 8.248 54.956 8.248H54.91C56.382 7.788 56.75 10.042 55.232 9.582C54.818 9.26 53.438 10.824 52.84 11.422C56.796 12.71 67.974 15.792 67.974 12.664C67.974 12.25 68.066 11.974 68.48 11.974C68.802 11.974 68.94 12.71 68.94 12.94ZM61.9466 32.582C60.6126 35.342 58.2666 40.218 55.2766 40.954C53.7126 41.322 50.9066 39.942 52.7466 35.158C53.4366 33.272 55.0926 30.88 55.5986 29.73C56.2426 28.212 54.6326 27.614 52.0566 27.568L51.5046 29.04C50.4006 31.938 48.1926 37.044 45.9386 39.206C45.5706 39.528 45.2946 39.022 45.5706 38.608C49.2046 33.824 51.7346 26.878 52.6546 21.726C53.1146 19.15 56.1046 20.3 55.4606 23.382C55.1846 24.67 53.7126 25.912 52.9306 26.464C54.6326 26.556 57.0246 26.51 59.2786 26.28C59.6006 26.924 58.8646 28.672 58.3126 29.822C57.6226 31.248 52.9306 39.666 55.6906 39.804C57.5766 39.85 60.4286 34.1 61.3946 32.122C61.8086 31.34 62.4066 31.662 61.9466 32.582ZM78.0818 32.536C76.7018 35.342 73.8958 40.862 71.1358 41.092C69.6178 41.184 67.4558 39.988 68.8358 35.158C68.0998 36.354 66.8578 38.194 65.5238 39.482C60.2338 44.542 56.7378 36.492 63.6838 28.166C66.4438 24.9 71.7338 23.198 74.3558 26.05C74.9998 26.74 74.6318 27.522 73.8498 27.384C73.3438 25.682 71.6418 25.314 69.9398 26.234C67.8698 27.384 65.4778 30.098 63.8218 32.812C63.4538 33.456 62.2118 35.71 61.9358 37.458C61.4758 40.678 64.0058 40.31 66.1678 37.734C67.7778 35.802 69.0658 33.548 70.2618 31.294C71.2738 29.362 71.9178 28.258 73.3898 28.35C73.9878 28.396 74.6778 28.672 75.3218 28.534C74.3558 29.5 71.6418 34.33 71.0438 37.136C70.6758 39.022 70.9058 39.896 71.5038 39.896C73.4358 39.988 76.4718 34.146 77.4378 32.168C77.8518 31.34 78.5418 31.616 78.0818 32.536ZM93.4739 32.536C92.0939 35.342 89.4259 41.184 85.8839 41.184C84.2739 41.184 82.0659 40.08 83.4459 35.802C83.8139 34.606 84.6879 33.042 85.9759 30.972C87.0799 29.178 86.2519 27.936 82.7099 31.248C81.1459 32.674 78.8919 35.25 76.3159 40.356C75.9479 41 75.5339 41.046 74.5679 41.046C73.8779 41.092 73.4639 41.046 73.0039 41.322C75.2119 36.952 77.0979 32.582 79.3519 28.442C80.5479 26.234 81.1459 25.452 82.6179 25.544C83.2159 25.59 83.9059 25.866 84.5499 25.728C83.1699 26.464 80.6399 31.064 78.9839 34.376C79.9039 33.226 81.3759 31.478 82.8019 30.236C85.0099 28.258 89.7479 25.36 91.3119 25.912C91.3119 25.912 86.3899 34.56 85.7919 37.78C85.4239 39.666 85.9299 40.08 86.5279 40.08C88.9199 40.08 91.8639 34.054 92.8299 32.122C93.1979 31.294 93.9339 31.616 93.4739 32.536ZM143.51 12.388C142.774 12.986 141.762 13.492 140.428 13.86C139.186 14.182 139.14 13.124 140.658 12.94C146.408 12.25 143.786 0.841999 128.974 6.132C123.5 8.11 120.28 13.262 126.49 17.08C129.296 18.782 133.942 20.392 137.346 22.508C146.73 28.304 140.566 36.952 132.792 41.598C122.396 47.808 102.8 46.52 102.018 33.548C101.788 29.178 105.376 22.922 109.884 20.806C110.528 20.53 111.862 20.346 110.344 21.496C109.102 22.462 107.998 23.612 107.17 24.946C105.514 27.522 104.64 30.604 104.594 33.548C104.502 44.956 121.016 46.152 130.216 41.368C137.944 37.32 141.21 29.408 135.644 24.9C132.792 22.6 126.628 20.944 123.178 18.644C116.324 14.09 120.51 7.282 127.226 4.89C131.826 3.28 138.68 3.004 141.992 4.66C145.258 6.27 146.362 10.042 143.51 12.388ZM157.511 23.52C157.971 23.52 157.879 24.532 157.419 24.532H154.751C153.187 27.2 151.347 29.638 148.633 32.122C148.219 33.318 147.575 36.814 147.575 36.814C146.885 39.896 149.001 40.31 150.519 39.206C152.635 37.642 154.153 34.744 155.395 32.26C155.763 31.432 156.453 31.616 155.993 32.536C153.969 36.768 153.187 38.01 151.485 39.712C149.001 42.104 144.447 41.322 145.137 36.262C145.551 33.134 147.253 28.12 148.725 24.532H146.333C145.827 24.532 145.919 23.52 146.425 23.52H149.185C150.243 21.22 151.393 18.966 152.543 16.988C155.717 11.422 160.685 12.204 157.281 19.564C156.637 20.944 155.993 22.232 155.303 23.52H157.511ZM156.591 18.828C157.465 16.896 158.109 12.802 155.257 16.804C154.153 18.368 153.141 20.898 151.991 23.52H154.291C155.165 21.956 155.947 20.346 156.591 18.828ZM153.693 24.532H151.531C150.565 26.786 149.691 29.04 149.047 30.65C150.795 28.856 152.359 26.74 153.693 24.532ZM171.55 32.352C170.768 34.1 168.192 40.632 164.328 40.632C162.948 40.632 161.982 40.126 161.384 39.436C160.096 40.402 158.716 41.046 157.382 41C153.886 40.908 153.38 36.722 155.128 32.628C156.922 28.396 160.74 24.808 163.868 24.9C167.364 24.946 167.87 29.178 166.122 33.272C165.432 34.882 164.006 37.044 162.258 38.7C162.626 39.39 163.316 39.85 164.42 39.85C167.364 39.85 169.756 34.146 170.86 31.938C171.09 31.478 171.872 31.662 171.55 32.352ZM164.834 26.418C162.856 25.866 160.004 28.81 158.302 32.444C156.508 36.216 156.094 39.436 157.75 39.942C158.624 40.172 159.774 39.712 160.878 38.792C160.372 38.056 160.142 37.228 160.142 36.538C160.188 35.48 160.602 34.56 161.752 34.56C162.534 34.56 163.132 35.204 163.132 35.94C163.132 36.124 163.086 36.262 163.04 36.446C163.546 35.71 164.052 34.836 164.466 33.962C166.26 30.19 166.49 26.924 164.834 26.418ZM183.37 32.582C182.036 35.342 179.69 40.218 176.7 40.954C175.136 41.322 172.33 39.942 174.17 35.158C174.86 33.272 176.516 30.88 177.022 29.73C177.666 28.212 176.056 27.614 173.48 27.568L172.928 29.04C171.824 31.938 169.616 37.044 167.362 39.206C166.994 39.528 166.718 39.022 166.994 38.608C170.628 33.824 173.158 26.878 174.078 21.726C174.538 19.15 177.528 20.3 176.884 23.382C176.608 24.67 175.136 25.912 174.354 26.464C176.056 26.556 178.448 26.51 180.702 26.28C181.024 26.924 180.288 28.672 179.736 29.822C179.046 31.248 174.354 39.666 177.114 39.804C179 39.85 181.852 34.1 182.818 32.122C183.232 31.34 183.83 31.662 183.37 32.582ZM194.768 32.398C193.066 36.078 191.088 41.184 185.982 41.184C183.682 41.184 181.612 39.666 181.566 36.768C181.52 34.008 183.084 30.558 185.108 28.166C187.454 25.406 190.95 23.658 192.974 25.176C194.722 26.51 193.388 29.638 190.444 31.892C189.018 32.95 186.028 33.916 184.786 33.916C184.096 35.572 183.314 40.218 186.35 40.218C190.398 40.218 192.882 34.79 193.94 32.352C194.308 31.524 195.228 31.432 194.768 32.398ZM189.984 31.11C193.756 27.936 193.526 21.956 187.868 28.81C186.672 30.282 185.522 32.306 185.108 33.134C185.936 33.134 188.328 32.49 189.984 31.11Z" fill="#FF887B"/>
<path d="M70.4954 22.3192C69.9945 22.2692 69.5469 22.1692 69.1526 22.0192C68.7582 21.8692 68.4238 21.6733 68.1492 21.4317C67.8749 21.19 67.6658 20.9098 67.5219 20.5912C67.3781 20.2725 67.3061 19.9193 67.3061 19.5317C67.8923 19.5775 68.3879 19.6608 68.7929 19.7817C69.1978 19.9025 69.527 20.0733 69.7802 20.2942C70.0332 20.515 70.2156 20.7911 70.3276 21.1224C70.4395 21.4537 70.4954 21.8527 70.4954 22.3192ZM70.4954 20.2129C70.3728 20.0671 70.2063 19.9233 69.9957 19.7817C69.7851 19.64 69.5413 19.5108 69.2645 19.3942C69.2964 19.2192 69.3497 19.0379 69.4243 18.8504C69.4989 18.6629 69.5895 18.4786 69.6961 18.2974C69.8027 18.1161 69.9238 17.9421 70.0596 17.7754C70.1954 17.6087 70.3407 17.4567 70.4954 17.3192C70.6499 17.4567 70.7952 17.6087 70.9312 17.7754C71.0672 17.9421 71.1884 18.116 71.2947 18.2972C71.4013 18.4785 71.4919 18.6629 71.5665 18.8504C71.6411 19.0379 71.6944 19.2192 71.7264 19.3942C71.4493 19.5067 71.2054 19.6337 70.9948 19.7754C70.7842 19.9171 70.6178 20.0629 70.4954 20.2129ZM71.1349 22.2192C71.1242 21.9275 71.0962 21.6577 71.0508 21.4097C71.0054 21.1617 70.9348 20.9273 70.8391 20.7067C71.0896 20.3692 71.4347 20.0942 71.8744 19.8817C72.3141 19.6692 72.9176 19.5525 73.6847 19.5317C73.69 20.19 73.4648 20.7577 73.0091 21.2349C72.5534 21.7121 71.9286 22.0402 71.1349 22.2192Z" fill="#FF887B"/>
</svg>
