<svg width="189" height="42" viewBox="0 0 189 42" >
<path d="M63.005 9.39707C63.005 11.1451 60.705 12.1571 57.807 11.7891C50.999 10.9151 47.181 9.25907 46.215 8.84507C40.695 17.6311 40.327 27.7051 33.565 35.4331C23.813 46.5191 -5.35092 43.2991 0.859079 23.6571C2.23908 19.3791 6.79304 17.4931 6.51704 19.4251C5.78104 20.3451 2.51508 21.4031 1.77908 25.7731C0.123079 35.2031 8.63304 40.2631 15.717 40.1251C22.939 39.9411 27.861 37.0431 31.357 33.2251C36.923 27.1991 42.949 10.9611 44.881 8.38507C40.051 6.86707 35.865 6.08506 30.943 5.85506C17.787 5.21106 12.497 18.6891 19.719 20.9891C25.377 22.7831 28.689 17.0791 28.505 15.7911V15.6991C28.965 15.2851 29.425 15.4691 29.425 16.0671C28.827 20.9891 23.583 23.6111 19.259 22.1391C9.87504 18.8731 13.371 1.94507 30.621 3.50907C36.141 3.96907 42.673 6.68306 45.617 7.51107C46.031 7.00507 48.009 4.70507 49.021 4.70507H48.975C50.447 4.24507 50.815 6.49906 49.297 6.03906C48.883 5.71706 47.503 7.28107 46.905 7.87907C50.861 9.16707 62.039 12.2491 62.039 9.12107C62.039 8.70707 62.131 8.43107 62.545 8.43107C62.867 8.43107 63.005 9.16707 63.005 9.39707ZM56.0116 29.0391C54.6776 31.7991 52.3316 36.6751 49.3416 37.4111C47.7776 37.7791 44.9716 36.3991 46.8116 31.6151C47.5016 29.7291 49.1576 27.3371 49.6636 26.1871C50.3076 24.6691 48.6976 24.0711 46.1216 24.0251L45.5696 25.4971C44.4656 28.3951 42.2576 33.5011 40.0036 35.6631C39.6356 35.9851 39.3596 35.4791 39.6356 35.0651C43.2696 30.2811 45.7996 23.3351 46.7196 18.1831C47.1796 15.6071 50.1696 16.7571 49.5256 19.8391C49.2496 21.1271 47.7776 22.3691 46.9956 22.9211C48.6976 23.0131 51.0896 22.9671 53.3436 22.7371C53.6656 23.3811 52.9296 25.1291 52.3776 26.2791C51.6876 27.7051 46.9956 36.1231 49.7556 36.2611C51.6416 36.3071 54.4936 30.5571 55.4596 28.5791C55.8736 27.7971 56.4716 28.1191 56.0116 29.0391ZM72.1468 28.9931C70.7668 31.7991 67.9608 37.3191 65.2008 37.5491C63.6828 37.6411 61.5208 36.4451 62.9008 31.6151C62.1648 32.8111 60.9228 34.6511 59.5888 35.9391C54.2988 40.9991 50.8028 32.9491 57.7488 24.6231C60.5088 21.3571 65.7988 19.6551 68.4208 22.5071C69.0648 23.1971 68.6968 23.9791 67.9148 23.8411C67.4088 22.1391 65.7068 21.7711 64.0048 22.6911C61.9348 23.8411 59.5428 26.5551 57.8868 29.2691C57.5188 29.9131 56.2768 32.1671 56.0008 33.9151C55.5408 37.1351 58.0708 36.7671 60.2328 34.1911C61.8428 32.2591 63.1308 30.0051 64.3268 27.7511C65.3388 25.8191 65.9828 24.7151 67.4548 24.8071C68.0528 24.8531 68.7428 25.1291 69.3868 24.9911C68.4208 25.9571 65.7068 30.7871 65.1088 33.5931C64.7408 35.4791 64.9708 36.3531 65.5688 36.3531C67.5008 36.4451 70.5368 30.6031 71.5028 28.6251C71.9168 27.7971 72.6068 28.0731 72.1468 28.9931ZM87.5389 28.9931C86.1589 31.7991 83.4909 37.6411 79.9489 37.6411C78.3389 37.6411 76.1309 36.5371 77.5109 32.2591C77.8789 31.0631 78.7529 29.4991 80.0409 27.4291C81.1449 25.6351 80.3169 24.3931 76.7749 27.7051C75.2109 29.1311 72.9569 31.7071 70.3809 36.8131C70.0129 37.4571 69.5989 37.5031 68.6329 37.5031C67.9429 37.5491 67.5289 37.5031 67.0689 37.7791C69.2769 33.4091 71.1629 29.0391 73.4169 24.8991C74.6129 22.6911 75.2109 21.9091 76.6829 22.0011C77.2809 22.0471 77.9709 22.3231 78.6149 22.1851C77.2349 22.9211 74.7049 27.5211 73.0489 30.8331C73.9689 29.6831 75.4409 27.9351 76.8669 26.6931C79.0749 24.7151 83.8129 21.8171 85.3769 22.3691C85.3769 22.3691 80.4549 31.0171 79.8569 34.2371C79.4889 36.1231 79.9949 36.5371 80.5929 36.5371C82.9849 36.5371 85.9289 30.5111 86.8949 28.5791C87.2629 27.7511 87.9989 28.0731 87.5389 28.9931ZM137.575 8.84507C136.839 9.44307 135.827 9.94907 134.493 10.3171C133.251 10.6391 133.205 9.58107 134.723 9.39707C140.473 8.70707 137.851 -2.70094 123.039 2.58907C117.565 4.56707 114.345 9.71907 120.555 13.5371C123.361 15.2391 128.007 16.8491 131.411 18.9651C140.795 24.7611 134.631 33.4091 126.857 38.0551C116.461 44.2651 96.865 42.9771 96.083 30.0051C95.853 25.6351 99.441 19.3791 103.949 17.2631C104.593 16.9871 105.927 16.8031 104.409 17.9531C103.167 18.9191 102.063 20.0691 101.235 21.4031C99.579 23.9791 98.705 27.0611 98.659 30.0051C98.567 41.4131 115.081 42.6091 124.281 37.8251C132.009 33.7771 135.275 25.8651 129.709 21.3571C126.857 19.0571 120.693 17.4011 117.243 15.1011C110.389 10.5471 114.575 3.73907 121.291 1.34707C125.891 -0.262935 132.745 -0.538935 136.057 1.11707C139.323 2.72707 140.427 6.49907 137.575 8.84507ZM151.576 19.9771C152.036 19.9771 151.944 20.9891 151.484 20.9891H148.816C147.252 23.6571 145.412 26.0951 142.698 28.5791C142.284 29.7751 141.64 33.2711 141.64 33.2711C140.95 36.3531 143.066 36.7671 144.584 35.6631C146.7 34.0991 148.218 31.2011 149.46 28.7171C149.828 27.8891 150.518 28.0731 150.058 28.9931C148.034 33.2251 147.252 34.4671 145.55 36.1691C143.066 38.5611 138.512 37.7791 139.202 32.7191C139.616 29.5911 141.318 24.5771 142.79 20.9891H140.398C139.892 20.9891 139.984 19.9771 140.49 19.9771H143.25C144.308 17.6771 145.458 15.4231 146.608 13.4451C149.782 7.87907 154.75 8.66106 151.346 16.0211C150.702 17.4011 150.058 18.6891 149.368 19.9771H151.576ZM150.656 15.2851C151.53 13.3531 152.174 9.25907 149.322 13.2611C148.218 14.8251 147.206 17.3551 146.056 19.9771H148.356C149.23 18.4131 150.012 16.8031 150.656 15.2851ZM147.758 20.9891H145.596C144.63 23.2431 143.756 25.4971 143.112 27.1071C144.86 25.3131 146.424 23.1971 147.758 20.9891ZM165.615 28.8091C164.833 30.5571 162.257 37.0891 158.393 37.0891C157.013 37.0891 156.047 36.5831 155.449 35.8931C154.161 36.8591 152.781 37.5031 151.447 37.4571C147.951 37.3651 147.445 33.1791 149.193 29.0851C150.987 24.8531 154.805 21.2651 157.933 21.3571C161.429 21.4031 161.935 25.6351 160.187 29.7291C159.497 31.3391 158.071 33.5011 156.323 35.1571C156.691 35.8471 157.381 36.3071 158.485 36.3071C161.429 36.3071 163.821 30.6031 164.925 28.3951C165.155 27.9351 165.937 28.1191 165.615 28.8091ZM158.899 22.8751C156.921 22.3231 154.069 25.2671 152.367 28.9011C150.573 32.6731 150.159 35.8931 151.815 36.3991C152.689 36.6291 153.839 36.1691 154.943 35.2491C154.437 34.5131 154.207 33.6851 154.207 32.9951C154.253 31.9371 154.667 31.0171 155.817 31.0171C156.599 31.0171 157.197 31.6611 157.197 32.3971C157.197 32.5811 157.151 32.7191 157.105 32.9031C157.611 32.1671 158.117 31.2931 158.531 30.4191C160.325 26.6471 160.555 23.3811 158.899 22.8751ZM177.435 29.0391C176.101 31.7991 173.755 36.6751 170.765 37.4111C169.201 37.7791 166.395 36.3991 168.235 31.6151C168.925 29.7291 170.581 27.3371 171.087 26.1871C171.731 24.6691 170.121 24.0711 167.545 24.0251L166.993 25.4971C165.889 28.3951 163.681 33.5011 161.427 35.6631C161.059 35.9851 160.783 35.4791 161.059 35.0651C164.693 30.2811 167.223 23.3351 168.143 18.1831C168.603 15.6071 171.593 16.7571 170.949 19.8391C170.673 21.1271 169.201 22.3691 168.419 22.9211C170.121 23.0131 172.513 22.9671 174.767 22.7371C175.089 23.3811 174.353 25.1291 173.801 26.2791C173.111 27.7051 168.419 36.1231 171.179 36.2611C173.065 36.3071 175.917 30.5571 176.883 28.5791C177.297 27.7971 177.895 28.1191 177.435 29.0391ZM188.833 28.8551C187.131 32.5351 185.153 37.6411 180.047 37.6411C177.747 37.6411 175.677 36.1231 175.631 33.2251C175.585 30.4651 177.149 27.0151 179.173 24.6231C181.519 21.8631 185.015 20.1151 187.039 21.6331C188.787 22.9671 187.453 26.0951 184.509 28.3491C183.083 29.4071 180.093 30.3731 178.851 30.3731C178.161 32.0291 177.379 36.6751 180.415 36.6751C184.463 36.6751 186.947 31.2471 188.005 28.8091C188.373 27.9811 189.293 27.8891 188.833 28.8551ZM184.049 27.5671C187.821 24.3931 187.591 18.4131 181.933 25.2671C180.737 26.7391 179.587 28.7631 179.173 29.5911C180.001 29.5911 182.393 28.9471 184.049 27.5671Z" fill="#555555"/>
</svg>
