<svg xmlns="http://www.w3.org/2000/svg" xmlns:xlink="http://www.w3.org/1999/xlink" version="1.1" x="0px" y="0px" viewBox="0 0 128 160" style="enable-background:new 0 0 128 128;" xml:space="preserve"><path d="M125,0H3C1.3,0,0,1.3,0,3v122c0,1.7,1.3,3,3,3h122c1.7,0,3-1.3,3-3V3C128,1.3,126.7,0,125,0z M124,46H95V22h29V46z M33,74  v24H4V74H33z M4,72V48h29v24H4z M65,72V48h28v24H65z M93,74v24H65V74H93z M35,72V48h28v24H35z M63,74v24H35V74H63z M35,46V22h28v24  H35z M63,100v24H35v-24H63z M65,100h28v24H65V100z M65,46V22h28v24H65z M95,74h29v24H95V74z M95,72V48h29v24H95z M42.5,9h43  c1.4,0,2.5,1.1,2.5,2.5S86.9,14,85.5,14h-43c-1.4,0-2.5-1.1-2.5-2.5S41.1,9,42.5,9z M33,22v24H4V22H33z M4,100h29v24H4V100z M95,124  v-24h29v24H95z"/><path d="M57,28.9c1.4-0.5,1-2.7-0.2-2.7c-0.1,0-0.3,0-0.5,0.1c-4.7,1.8-8.6,6-10.4,10.9c-1-1.3-2.2-2.3-3.8-3.1  c-0.2-0.1-0.4-0.2-0.6-0.2c-1.2,0-2,1.8-0.7,2.5c2.1,1.1,3.4,2.6,4.5,4.8c0.2,0.4,0.7,0.7,1.1,0.7c0.6,0,1.2-0.3,1.3-1  C48.5,35.8,52.2,30.7,57,28.9z"/><path d="M116.8,80.9c1.4-0.5,1-2.7-0.2-2.7c-0.1,0-0.3,0-0.5,0.1c-4.7,1.8-8.6,6-10.4,10.9c-1-1.3-2.2-2.3-3.8-3.1  c-0.2-0.1-0.4-0.2-0.6-0.2c-1.2,0-2,1.8-0.7,2.5c2.1,1.1,3.4,2.6,4.5,4.8c0.2,0.4,0.7,0.7,1.1,0.7c0.6,0,1.2-0.3,1.3-1  C108.3,87.8,112,82.7,116.8,80.9z"/><path d="M27.1,106.9c1.4-0.5,1-2.7-0.2-2.7c-0.1,0-0.3,0-0.5,0.1c-4.7,1.8-8.6,6-10.4,10.9c-1-1.3-2.2-2.3-3.8-3.1  c-0.2-0.1-0.4-0.2-0.6-0.2c-1.2,0-2,1.8-0.7,2.5c2.1,1.1,3.4,2.6,4.5,4.8c0.2,0.4,0.7,0.7,1.1,0.7c0.6,0,1.2-0.3,1.3-1  C18.6,113.8,22.3,108.7,27.1,106.9z"/><text x="0" y="143" fill="#000000" font-size="5px" font-weight="bold" font-family="'Helvetica Neue', Helvetica, Arial-Unicode, Arial, Sans-serif">Created by Creative Mahira</text><text x="0" y="148" fill="#000000" font-size="5px" font-weight="bold" font-family="'Helvetica Neue', Helvetica, Arial-Unicode, Arial, Sans-serif">from the Noun Project</text></svg>